<?xml version="1.0" standalone="no"?>
<!DOCTYPE svg PUBLIC "-//W3C//DTD SVG 1.1//EN" "http://www.w3.org/Graphics/SVG/1.1/DTD/svg11.dtd" >
<svg xmlns="http://www.w3.org/2000/svg">
<metadata>Generated by IcoMoon</metadata>
<defs>
<font id="icomoon" horiz-adv-x="1024">
<font-face units-per-em="1024" ascent="960" descent="-64" />
<missing-glyph horiz-adv-x="1024" />
<glyph unicode="&#x20;" horiz-adv-x="512" d="" />
<glyph unicode="&#xe600;" glyph-name="location" d="M783.328 774.528l-3.328 3.264c-65.312 64-155.040 103.552-254.048 103.552-98.912 0-188.544-39.456-253.856-103.36l-3.68-3.648c-64.352-64.832-104.128-153.792-104.128-252 0-98.304 39.84-187.328 104.32-252.16l3.328-3.296 254.048-252.224 257.152 255.328c64.608 64.832 104.512 153.952 104.512 252.352-0.032 98.272-39.872 187.296-104.32 252.192v0zM525.984 420.32c-69.92 0-126.528 56.256-126.528 125.6 0 28.672 9.632 55.072 25.888 76.192 23.136 30.048 59.584 49.472 100.672 49.472 69.888 0 126.528-56.256 126.528-125.664-0.032-69.344-56.704-125.6-126.56-125.6v0z" />
<glyph unicode="&#xe601;" d="M610.816 339.68c-10.080-22.176 0.288-50.688-39.008-50.048-17.376 0.256-64.576 48.32-96.8 83.488-28.192 33.696-87.872 107.232-85.184 128 5.152 38.944 31.936 24.544 55.232 31.168 8.576 2.528 27.072 144.64-107.232 287.68-4.48 4.672-21.376 6.528-34.464-3.36-39.456-29.664-85.536-63.392-104.384-135.456-14.112-54.624-33.696-140.672 113.728-340.256 11.936-19.552 30.88-43.552 58.624-72.864 5.28-5.76 10.304-11.008 15.232-15.744 186.464-190.944 278.016-184 335.648-177.696 74.016 8.128 114.112 48.8 149.184 83.616 11.584 11.552 12.224 28.384 8.352 33.504-122.112 153.664-265.312 155.968-268.928 147.968v0z" />
<glyph unicode="&#xe602;" d="M821.568 693.856c-57.728 112.672-173.632 192.48-309.6 192.48-135.936 0-347.712-114.592-347.712-351.2 0-57.152 13.792-111.104 38.176-158.752 57.696-112.672 309.536-396.384 309.536-396.384s347.744 362.848 347.744 555.136c0 57.12-13.76 111.072-38.144 158.72v0zM511.968 360.128c-96.192 0-174.496 78.496-174.496 175.008 0 72.928 44.8 135.584 108.224 161.856 20.448 8.416 42.816 13.088 66.24 13.088 96.224 0 174.496-75.936 174.496-172.448 0-72.96-44.768-138.112-108.224-164.352-20.384-8.448-42.784-13.152-66.24-13.152v0zM772.32 502.432c0.32 0.512 0.672 0.992 0.96 1.536-0.064-0.128-0.128-0.224-0.16-0.32-0.288-0.416-0.544-0.8-0.8-1.216v0zM768.704 496.896c0.16 0.256 0.32 0.48 0.48 0.704-0.16-0.224-0.32-0.448-0.48-0.704v0z" />
<glyph unicode="&#xe603;" d="M511.968 686.848c83.424 0 151.328-65.888 151.328-149.568 0-63.264-38.848-119.744-93.856-142.496-17.728-7.328-37.12-11.36-57.472-11.36-83.392 0-151.296 68.064-151.296 151.712 0 63.264 38.816 117.6 93.856 140.32 17.728 7.296 37.12 11.392 57.44 11.392zM511.968 733.344c-25.92 0-51.2-4.992-75.136-14.912-74.432-30.752-122.56-102.72-122.56-183.328 0-109.312 88.672-198.24 197.664-198.24 25.984 0 51.232 5.024 75.168 14.912 73.312 30.272 122.56 104.832 122.56 185.504 0.032 108.128-88.672 196.064-197.696 196.064z" />
<glyph unicode="&#xe604;" glyph-name="arrow_red" d="M172.672 556.192l401.216 396.608 109.408-108.192-401.216-396.576 401.184-396.64-109.408-108.192-510.592 504.832 109.408 108.16zM625.408 524.544c-42.656 0-77.344-34.272-77.344-76.512s34.688-76.48 77.344-76.48c42.752 0 77.408 34.208 77.408 76.48 0 42.208-34.656 76.512-77.408 76.512v0zM883.328 524.544c-42.752 0-77.408-34.272-77.408-76.512s34.656-76.48 77.408-76.48c42.688 0 77.344 34.208 77.344 76.48 0 42.208-34.656 76.512-77.344 76.512v0z" />
<glyph unicode="&#xe605;" glyph-name="arrow-drop" d="M36.128 448c0 262.752 213.056 475.776 475.904 475.776 262.816 0 475.872-213.024 475.872-475.776s-213.056-475.84-475.872-475.84c-262.848 0.032-475.904 213.088-475.904 475.84v0zM532.576 222.112c1.6 0.736 2.784 1.568 3.456 2.048 0.416 0.256 0.864 0.448 1.248 0.672 2.528 1.312 5.888 3.136 9.12 6.176l0.704 0.672c0.832 0.64 1.696 1.312 2.4 2.016l268.288 278.304c9.6 9.984 14.848 23.040 14.848 36.8 0 14.56-5.76 28.128-16.224 38.144-21.024 20.288-54.688 19.648-75.008-1.376l-230.976-239.584-227.52 240.416c-20.096 21.248-53.728 22.144-74.976 2.112-10.496-9.888-16.576-23.936-16.576-38.464 0-13.632 5.152-26.496 14.464-36.416l265.504-280.64c15.616-16.576 40.224-20.928 61.184-10.944l0.064 0.064z" />
<glyph unicode="&#xe606;" glyph-name="arrow-gray" d="M854.976 544.256l-356.96 352.896-97.344-96.256 356.96-352.896-356.96-352.864 97.344-96.256 454.304 449.12-97.344 96.256zM452.16 516.064c38.016 0 68.8-30.496 68.8-68.064 0-37.6-30.816-68.032-68.8-68.032-38.016 0-68.832 30.432-68.832 68.032s30.816 68.064 68.832 68.064v0zM222.688 516.064c38.016 0 68.832-30.496 68.832-68.064 0-37.6-30.816-68.032-68.832-68.032s-68.832 30.432-68.832 68.032c0 37.6 30.816 68.064 68.832 68.064v0z" />
<glyph unicode="&#xe607;" d="M970.224 588.528v160.384c0 33.744-27.344 61.088-61.088 61.088h-794.256c-33.68 0-61.104-27.344-61.104-61.088v-160.384h916.448z" />
<glyph unicode="&#xe608;" d="M241.952 706.192c-32.176 0-58.464 24.672-58.464 54.784v49.024h116.928v-49.024c-0.016-30.128-26.336-54.784-58.464-54.784z" />
<glyph unicode="&#xe609;" d="M292.656 764.864c0-27.952-22.832-50.832-50.704-50.832-27.904 0-50.704 22.88-50.704 50.832v95.12c0 27.952 22.8 50.832 50.704 50.832 27.872 0 50.704-22.88 50.704-50.832v-95.12z" />
<glyph unicode="&#xe60a;" d="M784.176 706.192c-32.16 0-58.432 24.672-58.432 54.784v49.024h116.912v-49.024c-0.016-30.128-26.32-54.784-58.48-54.784z" />
<glyph unicode="&#xe60b;" d="M834.896 764.864c0-27.952-22.848-50.832-50.72-50.832-27.888 0-50.704 22.88-50.704 50.832v95.12c0 27.952 22.816 50.832 50.704 50.832 27.872 0 50.72-22.88 50.72-50.832v-95.12z" />
<glyph unicode="&#xe60c;" d="M970.224 209.472v-86.816l-136.384-137.472h-727.664c-28.944 0-52.4 27.712-52.4 61.872v549.104h916.448v-386.688z" />
<glyph unicode="&#xe60d;" d="M834.928 120.496h135.296l-135.296-135.312z" />
<glyph unicode="&#xe60e;" d="M99.888 942.032v-863.792h703.040v725.008l-130.848 138.8h-572.192z" />
<glyph unicode="&#xe60f;" d="M672.080 803.248h130.848l-130.848 138.8v-138.8z" />
<glyph unicode="&#xe610;" d="M202.576 813.456h113.68v-113.68h-113.68v113.68z" />
<glyph unicode="&#xe611;" d="M202.576 623.296h113.68v-113.68h-113.68v113.68z" />
<glyph unicode="&#xe612;" d="M202.576 433.152h113.68v-113.68h-113.68v113.68z" />
<glyph unicode="&#xe613;" d="M371.888 814.672h200.736v-11.792h-200.736v11.792z" />
<glyph unicode="&#xe614;" d="M371.888 721.312h320.144v-11.856h-320.144v11.856z" />
<glyph unicode="&#xe615;" d="M371.888 531.84h320.144v-11.792h-320.144v11.792z" />
<glyph unicode="&#xe616;" d="M371.888 626.576h320.144v-11.792h-320.144v11.792z" />
<glyph unicode="&#xe617;" d="M371.888 342.4h320.144v-11.744h-320.144v11.744z" />
<glyph unicode="&#xe618;" d="M203.744 212.784h488.288v-11.808h-488.288v11.808z" />
<glyph unicode="&#xe619;" d="M371.888 437.12h320.144v-11.872h-320.144v11.872z" />
<glyph unicode="&#xe61a;" d="M924.144 88.976c0-74.563-60.445-135.008-135.008-135.008s-135.008 60.445-135.008 135.008c0 74.563 60.445 135.008 135.008 135.008s135.008-60.445 135.008-135.008z" />
<glyph unicode="&#xe61b;" d="M780.016 37.248c26.8 26.784 53.584 53.6 80.368 80.368 7.296 7.312-4.016 18.624-11.312 11.312-26.8-26.784-53.584-53.6-80.368-80.368-7.296-7.312 4.016-18.624 11.312-11.312 26.8 26.784 53.584 53.6 80.368 80.368 7.296 7.312-4.016 18.624-11.312 11.312-26.8-26.784-53.584-53.6-80.368-80.368-7.296-7.312 4.016-18.624 11.312-11.312z" />
<glyph unicode="&#xe61c;" d="M778.336 50.256c-16.784 16.784-33.552 33.568-50.336 50.336-7.296 7.28-18.608-4.032-11.312-11.312 16.784-16.784 33.552-33.568 50.336-50.336 7.296-7.312 18.608 4 11.312 11.312-16.784 16.784-33.552 33.568-50.336 50.336-7.296 7.28-18.608-4.032-11.312-11.312 16.784-16.784 33.552-33.568 50.336-50.336 7.296-7.312 18.608 4 11.312 11.312z" />
<glyph unicode="&#xe61d;" d="M363.44 531.776l-107.056-41.12v190.624h107.056v-149.504z" />
<glyph unicode="&#xe61e;" d="M195.152 48.128v335.28l326.528 258 343.968-258v-335.28h-670.496z" />
<glyph unicode="&#xe61f;" d="M84.576 385.088l72.24-49.664 366.064 293.248 366.016-293.248 72.256 49.664-438.272 351.152-438.304-351.152z" />
<glyph unicode="&#xe620;" d="M447.12 283.568h150.144v-235.44h-150.144v235.44z" />
<glyph unicode="&#xe621;" d="M577.216 159.344c0 4.912-3.984 8.912-8.928 8.912-4.928 0-8.912-4-8.912-8.912 0-4.944 3.984-8.944 8.912-8.944 4.944 0 8.928 4 8.928 8.944z" />
<glyph unicode="&#xe622;" d="M228.528 716.208h162.752v-43.152h-162.752v43.152z" />
<glyph unicode="&#xe623;" d="M514.448 629.232l-0.944-0.080 0.944-0.96v1.040z" />
<glyph unicode="&#xe624;" d="M662.88 286.288h142.608v-168.16h-142.608v168.16z" />
<glyph unicode="&#xe625;" d="M738.128 205.408v77.408h-9.104v-77.408h-66.144v-7.968h66.144v-77.904h9.104v77.904h66.16v7.968h-66.16z" />
<glyph unicode="&#xe626;" d="M250.336 281.44h142.608v-168.192h-142.608v168.192z" />
<glyph unicode="&#xe627;" d="M325.584 200.528v77.44h-9.088v-77.44h-66.16v-7.968h66.16v-77.872h9.088v77.872h66.16v7.968h-66.16z" />
<glyph unicode="&#xe628;" d="M30.032 10.224h174.208v-36.192h-174.208v36.192z" />
<glyph unicode="&#xe629;" d="M30.032 13.808h174.208v-36.16h-174.208v36.16z" />
<glyph unicode="&#xe62a;" d="M5.328 49.968h174.208v-36.16h-174.208v36.16z" />
<glyph unicode="&#xe62b;" d="M5.328 53.568h174.208v-36.128h-174.208v36.128z" />
<glyph unicode="&#xe62c;" d="M44.128 89.68h174.224v-36.128h-174.224v36.128z" />
<glyph unicode="&#xe62d;" d="M44.128 93.344h174.224v-36.16h-174.224v36.16z" />
<glyph unicode="&#xe62e;" d="M49.568 129.472h174.208v-36.128h-174.208v36.128z" />
<glyph unicode="&#xe62f;" d="M49.568 133.088h174.208v-36.16h-174.208v36.16z" />
<glyph unicode="&#xe630;" d="M33.92 169.248h174.24v-36.16h-174.24v36.16z" />
<glyph unicode="&#xe631;" d="M33.92 172.848h174.24v-36.128h-174.24v36.128z" />
<glyph unicode="&#xe632;" d="M39.952 209.008h174.224v-36.16h-174.224v36.16z" />
<glyph unicode="&#xe633;" d="M39.952 212.624h174.224v-36.16h-174.224v36.16z" />
<glyph unicode="&#xe634;" d="M30.032 248.752h174.208v-36.128h-174.208v36.128z" />
<glyph unicode="&#xe635;" d="M30.032 252.368h174.208v-36.16h-174.208v36.16z" />
<glyph unicode="&#xe636;" d="M999.296 49.024h-174.208v-36.16h174.208v36.16z" />
<glyph unicode="&#xe637;" d="M999.296 52.624h-174.208v-36.16h174.208v36.16z" />
<glyph unicode="&#xe638;" d="M1024 88.784h-174.208v-36.16h174.208v36.16z" />
<glyph unicode="&#xe639;" d="M1024 92.368h-174.208v-36.096h174.208v36.096z" />
<glyph unicode="&#xe63a;" d="M985.2 128.528h-174.224v-36.16h174.224v36.16z" />
<glyph unicode="&#xe63b;" d="M985.2 132.16h-174.224v-36.16h174.224v36.16z" />
<glyph unicode="&#xe63c;" d="M979.76 168.32h-174.208v-36.16h174.208v36.16z" />
<glyph unicode="&#xe63d;" d="M979.76 171.904h-174.208v-36.16h174.208v36.16z" />
<glyph unicode="&#xe63e;" d="M995.392 208.064h-174.224v-36.16h174.224v36.16z" />
<glyph unicode="&#xe63f;" d="M995.392 211.664h-174.224v-36.128h174.224v36.128z" />
<glyph unicode="&#xe640;" d="M989.376 247.808h-174.224v-36.16h174.224v36.16z" />
<glyph unicode="&#xe641;" d="M989.376 251.472h-174.224v-36.16h174.224v36.16z" />
<glyph unicode="&#xe642;" d="M999.296 287.568h-174.208v-36.128h174.208v36.128z" />
<glyph unicode="&#xe643;" d="M999.296 291.184h-174.208v-36.16h174.208v36.16z" />
<glyph unicode="&#xe644;" d="M416.896 5.344h-174.208v-36.16h174.208v36.16z" />
<glyph unicode="&#xe645;" d="M416.896 8.944h-174.208v-36.16h174.208v36.16z" />
<glyph unicode="&#xe646;" d="M407.632 45.088h-174.224v-36.16h174.224v36.16z" />
<glyph unicode="&#xe647;" d="M407.632 48.72h-174.224v-36.128h174.224v36.128z" />
<glyph unicode="&#xe648;" d="M402.8 84.848h-174.224v-36.16h174.224v36.16z" />
<glyph unicode="&#xe649;" d="M402.8 88.496h-174.224v-36.16h174.224v36.16z" />
<glyph unicode="&#xe64a;" d="M421.632 124.624h-174.208v-36.128h174.208v36.128z" />
<glyph unicode="&#xe64b;" d="M421.632 128.256h-174.208v-36.192h174.208v36.192z" />
<glyph unicode="&#xe64c;" d="M412.992 164.368h-174.224v-36.16h174.224v36.16z" />
<glyph unicode="&#xe64d;" d="M412.992 167.968h-174.224v-36.096h174.224v36.096z" />
<glyph unicode="&#xe64e;" d="M362.224 45.472c0-57.088-46.384-103.408-103.616-103.408-57.264 0-103.632 46.32-103.632 103.408 0 57.12 46.352 103.536 103.632 103.536 57.216 0 103.616-46.416 103.616-103.536z" />
<glyph unicode="&#xe64f;" d="M341.488 45.472c0-45.712-37.056-82.72-82.864-82.72s-82.896 37.008-82.896 82.72c0 45.744 37.072 82.752 82.896 82.752 45.792 0 82.864-37.008 82.864-82.752z" />
<glyph unicode="&#xe650;" d="M296.256 20.72c0-5.248-4.224-9.536-9.424-9.536h-18.848v-11.904c0-6.592-5.264-11.904-11.76-11.904-6.512 0-11.776 5.312-11.776 11.904v11.904h-18.848c-5.2 0-9.424 4.288-9.424 9.536s4.224 9.536 9.424 9.536h18.848v9.536h-22.496c-5.2 0-9.424 4.256-9.424 9.536 0 5.248 4.224 9.536 9.424 9.536h22.496v0.624l-20.912 21.152c-3.696 3.744-3.696 9.84 0 13.568 3.696 3.744 9.696 3.744 13.408 0l19.104-19.312 19.184 19.408c3.696 3.744 9.696 3.744 13.424 0 3.696-3.744 3.696-9.84 0-13.568l-20.672-20.912v-0.976h22.496c5.2 0 9.424-4.288 9.424-9.536 0-5.28-4.224-9.536-9.424-9.536h-22.496v-9.536h18.848c5.2 0.016 9.424-4.272 9.424-9.52z" />
<glyph unicode="&#xe651;" glyph-name="heart-break" d="M764.448 856.256c-48.384 9.216-94.176 4.512-134.432-10.912l-151.392-287.872 162.016-162.208-158.368-132.128 115.2-187.36c139.808 75.424 412 249.12 412 456.576-0.032 191.328-122.912 300.544-245.024 323.904zM355.168 284l141.216 117.696-137.408 137.44 126.272 240.448c-52.736 64.256-134.784 93.984-225.632 76.672-121.888-23.36-245.056-132.576-245.056-323.936 0-272.992 472-487.872 492.288-496.8l1.472-0.64-153.152 249.12z" />
<glyph unicode="&#xe652;" d="M510.528 687.84l-19.168 19.136c-71.232 62.976-117.792 105.408-117.792 157.504 0 42.4 32.928 75.296 75.328 75.296 23.328 0 46.592-10.944 61.632-28.736 15.040 17.824 38.304 28.736 61.664 28.736 42.368 0 75.264-32.864 75.264-75.296 0-52.096-46.496-94.56-117.728-157.504l-19.2-19.136z" />
<glyph unicode="&#xe653;" d="M786.112 689.728c0-46.784-37.888-84.672-84.64-84.672s-84.672 37.92-84.672 84.672c0 46.688 37.952 84.608 84.672 84.608s84.64-37.92 84.64-84.608z" />
<glyph unicode="&#xe654;" d="M540.96 317.76c5.984 3.264 10.912 8.256 13.984 14.88 21.248 46.112 40.384 87.424 59.936 120.928v-113.856c0-8.8 1.76-17.12 4.736-24.672-0.256-1.696-0.384-3.424-0.384-5.184v-314.752c0-21.44 17.376-38.752 38.816-38.752s38.88 17.312 38.88 38.752v270.112c1.504-0.064 3.072-0.192 4.576-0.192h0.928v-269.952c0-21.44 17.376-38.752 38.816-38.752s38.88 17.312 38.88 38.752v312.8c5.12 9.44 8.064 20.064 8.064 31.808v119.296c9.696-25.664 13.632-60.16 8.736-109.312-1.824-18.048 11.36-34.112 29.44-35.936 1.056-0.128 2.176-0.192 3.328-0.192 16.64 0 30.944 12.672 32.64 29.632 14.752 147.808-42.304 204.448-106.24 243.616-2.88 1.792-5.952 2.88-9.056 3.712-7.68 4.32-16 7.552-24.448 9.6l-21.056-21.216-20.448 21.44-0.256-0.032c-10.752-2.624-21.376-7.136-30.816-13.376-1.696-0.672-3.488-1.44-5.184-2.528-64.192-39.36-101.856-120.992-149.568-224.224-5.6-12.064-3.2-25.76 4.928-35.2z" />
<glyph unicode="&#xe655;" d="M539.648 320.576c9.184 8.064 13.408 20.928 9.92 33.44-40.96 145.504-102.944 193.6-162.976 230.432-1.696 1.056-3.456 1.856-5.216 2.528-9.44 6.24-20 10.784-30.816 13.376l-0.224 0.032-20.416-21.44-21.12 21.184c-11.776-2.848-23.2-8.096-33.248-15.264l-0.832-0.448c-59.552-36.512-117.504-85.184-115.296-241.408 0.224-18.048 14.912-32.384 32.8-32.384h0.512c18.144 0.256 32.672 15.136 32.384 33.312-0.768 55.136 6.432 91.808 18.144 117.792v-59.744c-9.28-40.096-47.936-208.928-48.064-234.176-0.064-12.864 23.264-23.936 56.096-30.944v-141.824c0-21.44 17.376-38.816 38.848-38.816 21.44 0 38.848 17.376 38.848 38.816v133.952h5.504v-133.952c0-21.44 17.376-38.752 38.848-38.752s38.848 17.312 38.848 38.752v144.16c23.136 7.072 40.736 18.016 47.232 33.888 0.16 46.688-33.92 191.36-42.848 228.672v75.84c26.432-29.28 50.048-71.328 69.728-141.312 1.568-5.568 4.448-10.304 8.256-14.176z" />
<glyph unicode="&#xe656;" d="M414.528 689.728c0-46.784-37.92-84.672-84.64-84.672-46.752 0-84.64 37.92-84.64 84.672 0 46.688 37.856 84.608 84.64 84.608 46.72 0 84.64-37.92 84.64-84.608z" />
<glyph unicode="&#xe657;" glyph-name="male_sigle" d="M512 714.080l1.312-1.344 26.112 26.272c14.592-3.52 28.768-10.048 41.216-18.88 74.88-45.824 146.688-106.144 143.936-299.776-0.256-22.304-18.496-40.192-40.672-40.192-23.072 0.352-41.056 18.816-40.736 41.312 0.928 68.32-7.936 113.792-22.496 146.048v-74.080c11.488-49.696 59.424-258.912 59.616-290.176 0.064-16-28.864-29.728-69.568-38.304v-175.776c0-26.528-21.504-48.128-48.128-48.128-26.592 0-48.128 21.6-48.128 48.128v166.016h-2.464v558.88zM512 714.080l-1.312-1.344-26.112 26.272c-14.56-3.52-28.768-10.048-41.216-18.88-74.848-45.824-146.688-106.144-143.968-299.776 0.288-22.304 18.496-40.192 40.704-40.192 23.104 0.352 41.056 18.816 40.736 41.312-0.928 68.32 7.968 113.792 22.496 146.048v-74.080c-11.488-49.696-59.392-258.912-59.552-290.176-0.096-16 28.832-29.728 69.504-38.304v-175.776c0-26.528 21.568-48.128 48.128-48.128s48.128 21.6 48.128 48.128v166.016h2.464v558.88zM615.552 850.080c0-57.984-47.008-104.96-104.864-104.96-57.984 0-104.896 46.976-104.896 104.96 0 57.888 46.912 104.864 104.896 104.864 57.888 0 104.864-46.976 104.864-104.864z" />
<glyph unicode="&#xe658;" d="M338.176 878.464c-18.496 18.72-48.704 18.72-67.168 0l-184.192-186.464c-18.464-18.72-18.464-49.344 0-68l50.496-51.168c18.496-18.72 48.704-18.72 67.2 0l184.192 186.464c18.464 18.72 18.464 49.344 0 68l-50.528 51.168z" />
<glyph unicode="&#xe659;" d="M829.504 380.96l-251.36-254.464-247.712 250.816 251.36 254.496 247.712-250.848z" />
<glyph unicode="&#xe65a;" d="M763.584 314.272l-119.552-121.056-247.712 250.816 119.584 121.056 247.68-250.816z" />
<glyph unicode="&#xe65b;" d="M940.832 13.792l-362.72 112.704 251.36 254.464 111.36-367.168z" />
<glyph unicode="&#xe65c;" d="M940.832 13.792l-116.032 36.064 80.448 81.408 35.584-117.472z" />
<glyph unicode="&#xe65d;" d="M388.096 827.904l-251.328-254.496 193.664-196.096 251.36 254.496-193.696 196.096z" />
<glyph unicode="&#xe65e;" d="M504.16 710.368l-251.328-254.496 26.624-26.944 251.36 254.528-26.656 26.912z" />
<glyph unicode="&#xe65f;" d="M439.104 776.256l-251.328-254.496 26.592-26.944 251.328 254.496-26.592 26.944z" />
<glyph unicode="&#xe660;" d="M861.027 462.75h-88.576v17.664c0 22.64 8.64 45.264 25.952 62.544 17.296 17.264 39.936 25.888 62.624 25.888v-106.096z" />
<glyph unicode="&#xe661;" d="M655.299 46.462h-94.112v-28.192c0-12.032 4.608-24.064 13.792-33.216 9.184-9.184 21.2-13.744 33.28-13.744 12.016 0 24.064 4.56 33.232 13.744 9.184 9.152 13.792 21.184 13.792 33.216v28.192z" />
<glyph unicode="&#xe662;" d="M394.051 46.462h-94.080v-28.192c0-12.032 4.608-24.064 13.808-33.216 9.152-9.184 21.2-13.744 33.232-13.744 12.048 0 24.080 4.56 33.264 13.744 9.2 9.152 13.776 21.184 13.776 33.216v28.192z" />
<glyph unicode="&#xe663;" d="M815.651 102.254c-51.872-51.744-119.872-77.664-187.856-77.664h-222.288c-68 0-136 25.904-187.888 77.664-51.904 51.84-77.856 119.744-77.856 187.6 0 67.904 25.952 135.84 77.856 187.632 51.888 51.808 119.872 77.696 187.888 77.696h222.288c67.984 0 135.984-25.888 187.856-77.696 51.888-51.792 77.824-119.728 77.824-187.632 0.016-67.856-25.936-135.76-77.824-187.6z" />
<glyph unicode="&#xe664;" d="M729.203 462.75h-88.592v17.664c0 22.64 8.64 45.264 25.968 62.544 17.28 17.264 39.952 25.888 62.624 25.888v-106.096z" />
<glyph unicode="&#xe665;" d="M963.267 360.654h-79.36v-141.568h79.36v141.568z" />
<glyph unicode="&#xe666;" d="M419.699 548.078c0-4.512 1.696-9.040 5.168-12.496 3.44-3.456 7.984-5.184 12.528-5.184h158.496c4.528 0 9.072 1.728 12.528 5.184 3.472 3.456 5.2 7.984 5.2 12.496v7.088h-193.92v-7.088z" />
<glyph unicode="&#xe667;" d="M37.795 307.566c-4.528 0-9.024-1.712-12.512-5.184-3.44-3.472-5.216-7.968-5.216-12.528 0-4.496 1.76-9.008 5.216-12.464 3.488-3.44 7.984-5.216 12.512-5.216h42.368v35.408h-42.368z" />
<glyph unicode="&#xe668;" d="M140.243 307.566h-60.080v-35.408h60.080v35.408z" />
<glyph unicode="&#xe669;" d="M80.163 378.35c29.376 0 53.152-23.776 53.152-53.088 0-29.28-23.776-53.088-53.152-53.088-29.36 0-53.152 23.808-53.152 53.088 0 29.296 23.792 53.088 53.152 53.088v0zM80.163 307.566c9.792 0 17.728 7.968 17.728 17.68 0 9.776-7.936 17.68-17.728 17.68s-17.712-7.904-17.712-17.68c0-9.712 7.92-17.68 17.712-17.68v0z" />
<glyph unicode="&#xe66a;" d="M734.019 353.118c6.336 0 11.44 5.056 11.44 11.376 0 15.088 12.32 27.376 27.44 27.376 15.104 0 27.424-12.288 27.424-27.376 0-6.32 5.104-11.376 11.44-11.376s11.424 5.056 11.424 11.376c0 27.664-22.544 50.192-50.288 50.192s-50.304-22.528-50.304-50.192c0-6.304 5.136-11.376 11.424-11.376z" />
<glyph unicode="&#xe66b;" d="M733.507 46.462h-94.064v-28.192c0-12.032 4.56-24.064 13.744-33.216 9.184-9.184 21.232-13.744 33.28-13.744s24.080 4.56 33.264 13.744c9.184 9.152 13.76 21.184 13.76 33.216v28.192z" />
<glyph unicode="&#xe66c;" d="M472.275 46.462h-94.096v-28.192c0-12.032 4.592-24.064 13.76-33.216 9.216-9.184 21.264-13.744 33.296-13.744 12.064 0 24.064 4.56 33.264 13.744 9.2 9.152 13.776 21.184 13.776 33.216v28.192z" />
<glyph unicode="&#xe66d;" d="M422.323 666.689c0-51.984 42.224-94.112 94.32-94.112 52.144 0 94.32 42.144 94.32 94.112 0 52-42.176 94.224-94.32 94.224-52.096 0-94.32-42.224-94.32-94.224z" />
<glyph unicode="&#xe66e;" d="M441.219 666.689c0-41.616 33.744-75.296 75.424-75.296 41.696 0 75.456 33.664 75.456 75.296 0 41.648-33.744 75.328-75.456 75.328-41.68 0-75.424-33.68-75.424-75.328z" />
<glyph unicode="&#xe66f;" d="M478.035 644.161c0-4.784 3.84-8.672 8.576-8.672h17.152v-10.848c0-6 4.784-10.848 10.72-10.848s10.704 4.848 10.704 10.848v10.848h17.136c4.752 0 8.576 3.888 8.576 8.672s-3.824 8.672-8.576 8.672h-17.136v8.672h20.48c4.736 0 8.576 3.888 8.576 8.672 0 4.8-3.84 8.672-8.576 8.672h-20.48v0.592l19.008 19.248c3.408 3.408 3.408 8.96 0 12.352-3.344 3.408-8.816 3.408-12.192 0l-17.392-17.6-17.472 17.664c-3.36 3.392-8.832 3.392-12.192 0-3.376-3.424-3.376-8.944 0-12.352l18.8-19.040v-0.88h-20.48c-4.736 0-8.56-3.872-8.56-8.672 0-4.784 3.824-8.672 8.56-8.672h20.48v-8.672h-17.152c-4.72 0.016-8.56-3.872-8.56-8.656z" />
<glyph unicode="&#xe670;" d="M654.195 733.073c0-22.816 18.528-41.328 41.44-41.328 22.88 0 41.392 18.512 41.392 41.328s-18.512 41.36-41.392 41.36c-22.896 0.016-41.44-18.528-41.44-41.36z" />
<glyph unicode="&#xe671;" d="M662.499 733.073c0-18.288 14.816-33.072 33.136-33.072 18.304 0 33.104 14.8 33.104 33.072s-14.816 33.088-33.104 33.088c-18.32 0.016-33.136-14.8-33.136-33.088z" />
<glyph unicode="&#xe672;" d="M319.475 865.137c0-32.848 26.688-59.488 59.616-59.488 32.96 0 59.632 26.656 59.632 59.488 0 32.88-26.672 59.568-59.632 59.568-32.912-0.016-59.616-26.704-59.616-59.568z" />
<glyph unicode="&#xe673;" d="M331.427 865.137c0-26.304 21.328-47.584 47.664-47.584 26.352 0 47.696 21.28 47.696 47.584 0 26.336-21.328 47.616-47.696 47.616-26.336 0-47.664-21.296-47.664-47.616z" />
<glyph unicode="&#xe674;" d="M354.099 853.601c0-3.328 2.672-6.064 5.984-6.064h11.984v-7.568c0-4.192 3.344-7.568 7.472-7.568 4.144 0 7.504 3.376 7.504 7.568v7.568h11.968c3.312 0 6 2.72 6 6.064s-2.688 6.048-6 6.048h-11.968v6.064h14.304c3.312 0 6 2.72 6 6.048 0 3.36-2.672 6.064-6 6.064h-14.304v0.416l13.296 13.44c2.336 2.384 2.336 6.256 0 8.64-2.368 2.368-6.192 2.368-8.544 0l-12.16-12.288-12.192 12.336c-2.352 2.384-6.176 2.384-8.528 0s-2.352-6.256 0-8.624l13.152-13.296v-0.624h-14.32c-3.312 0-6-2.704-6-6.064 0-3.328 2.688-6.048 6-6.048h14.32v-6.048h-11.984c-3.312-0.016-5.984-2.72-5.984-6.064z" />
<glyph unicode="&#xe675;" d="M679.299 723.761c0-2.24 1.808-4.064 4.032-4.064h8.032v-5.072c0-2.8 2.256-5.072 5.024-5.072s5.008 2.272 5.008 5.072v5.072h8.048c2.224 0 4.016 1.84 4.016 4.064 0 2.256-1.792 4.064-4.016 4.064h-8.048v4.080h9.632c2.208 0 4 1.808 4 4.064 0 2.24-1.792 4.064-4 4.064h-9.632v0.272l8.928 9.024c1.616 1.616 1.616 4.208 0 5.808-1.584 1.6-4.144 1.6-5.712 0l-8.16-8.256-8.192 8.288c-1.584 1.6-4.144 1.6-5.712 0-1.6-1.6-1.6-4.208 0-5.792l8.816-8.912v-0.416h-9.616c-2.208 0-4.016-1.824-4.016-4.064 0-2.256 1.808-4.064 4.016-4.064h9.616v-4.064h-8.032c-2.224-0.032-4.032-1.84-4.032-4.096z" />
<glyph unicode="&#xe676;" d="M478.643 813.409h-13.2v-47.072h13.2v47.072z" />
<glyph unicode="&#xe677;" d="M523.251 826.833h-13.216v-47.088h13.216v47.088z" />
<glyph unicode="&#xe678;" d="M567.827 813.409h-13.184v-47.072h13.184v47.072z" />
<glyph unicode="&#xe679;" d="M878.864 667.302h-88.976v17.76c0 22.736 8.704 45.456 26.064 62.832 17.376 17.328 40.144 26 62.912 26v-106.592z" />
<glyph unicode="&#xe67a;" d="M672.208 249.158h-94.512v-28.32c0-12.080 4.608-24.16 13.84-33.392 9.2-9.2 21.312-13.808 33.424-13.808 12.080 0 24.176 4.608 33.408 13.808 9.216 9.232 13.84 21.312 13.84 33.392v28.32z" />
<glyph unicode="&#xe67b;" d="M409.776 249.158h-94.496v-28.32c0-12.080 4.624-24.16 13.872-33.392 9.2-9.2 21.28-13.808 33.376-13.808s24.192 4.608 33.408 13.808c9.264 9.232 13.84 21.312 13.84 33.392v28.32z" />
<glyph unicode="&#xe67c;" d="M833.28 305.222c-52.128-52.016-120.4-78.048-188.704-78.048h-223.296c-68.32 0-136.608 26.032-188.72 78.048-52.144 52.048-78.208 120.24-78.208 188.432s26.064 136.416 78.208 188.448c52.112 52.032 120.4 78.032 188.72 78.032h223.296c68.304 0 136.576-26 188.704-78.032s78.176-120.256 78.176-188.448c0-68.208-26.048-136.384-78.176-188.432z" />
<glyph unicode="&#xe67d;" d="M746.432 667.302h-88.976v17.76c0 22.736 8.688 45.456 26.064 62.832 17.36 17.328 40.144 26 62.912 26v-106.592z" />
<glyph unicode="&#xe67e;" d="M981.568 564.758h-79.712v-142.192h79.712v142.192z" />
<glyph unicode="&#xe67f;" d="M435.536 753.046c0-4.56 1.712-9.104 5.184-12.56 3.472-3.472 8.016-5.216 12.592-5.216h159.2c4.544 0 9.136 1.744 12.592 5.216 3.472 3.456 5.216 8 5.216 12.56v7.088h-194.784v-7.088z" />
<glyph unicode="&#xe680;" d="M51.936 511.446c-4.544 0-9.072-1.76-12.576-5.232-3.472-3.472-5.248-8-5.248-12.56s1.776-9.072 5.248-12.56c3.488-3.456 8.016-5.2 12.576-5.2h42.56v35.552h-42.56z" />
<glyph unicode="&#xe681;" d="M154.848 511.446h-60.352v-35.552h60.352v35.552z" />
<glyph unicode="&#xe682;" d="M94.496 582.534c29.504 0 53.376-23.872 53.376-53.328s-23.872-53.328-53.376-53.328c-29.488 0-53.392 23.872-53.392 53.328s23.904 53.328 53.392 53.328v0zM94.496 511.446c9.84 0 17.808 7.968 17.808 17.76s-7.984 17.76-17.808 17.76c-9.824 0-17.792-7.968-17.792-17.76s7.968-17.76 17.792-17.76v0z" />
<glyph unicode="&#xe683;" d="M750.752 249.158h-94.512v-28.32c0-12.080 4.624-24.16 13.84-33.392 9.232-9.2 21.328-13.808 33.44-13.808s24.176 4.608 33.424 13.808c9.232 9.232 13.808 21.312 13.808 33.392v28.32z" />
<glyph unicode="&#xe684;" d="M488.368 249.158h-94.528v-28.32c0-12.080 4.64-24.16 13.824-33.392 9.248-9.2 21.344-13.808 33.44-13.808s24.176 4.608 33.408 13.808c9.248 9.232 13.84 21.312 13.84 33.392v28.32z" />
<glyph unicode="&#xe685;" d="M717.152 365.568h128.272v-42.912h38.576v62.192c0 10.624-8.64 19.296-19.28 19.296h-166.848c-10.672 0-19.296-8.672-19.296-19.296v-62.192h38.576v42.912z" />
<glyph unicode="&#xe686;" d="M948.544 322.656h-336.176c-29.024 0-52.528-23.536-52.528-52.528v-186.496c0-29.008 23.504-52.528 52.528-52.528h336.176c29.008 0 52.512 23.52 52.512 52.528v186.496c0 28.992-23.504 52.528-52.512 52.528v0zM782.352 86.56c-46.272 0-83.808 37.52-83.808 83.792 0 46.304 37.552 83.808 83.808 83.808 46.304 0 83.84-37.52 83.84-83.808 0.016-46.272-37.536-83.792-83.84-83.792v0z" />
<glyph unicode="&#xe687;" d="M782.352 254.176c-46.272 0-83.808-37.52-83.808-83.808s37.552-83.792 83.808-83.792c46.304 0 83.84 37.52 83.84 83.792 0.016 46.288-37.536 83.808-83.84 83.808v0zM831.040 166.208c0-6.848-5.568-12.384-12.4-12.384h-19.712v-19.696c0-6.864-5.568-12.432-12.4-12.432h-8.288c-6.88 0-12.416 5.584-12.416 12.432v19.696h-19.712c-6.832 0-12.384 5.552-12.384 12.384v8.336c0 6.864 5.568 12.384 12.384 12.384h19.712v19.696c0 6.88 5.552 12.416 12.416 12.416h8.288c6.848 0 12.4-5.552 12.4-12.416v-19.696h19.712c6.848 0 12.4-5.536 12.4-12.384v-8.336z" />
<glyph unicode="&#xe688;" d="M818.64 186.928h-19.712v19.696c0 6.88-5.568 12.416-12.4 12.416h-8.288c-6.88 0-12.416-5.552-12.416-12.416v-19.696h-19.712c-6.832 0-12.384-5.536-12.384-12.384v-8.336c0-6.848 5.568-12.384 12.384-12.384h19.712v-19.696c0-6.864 5.552-12.432 12.416-12.432h8.288c6.848 0 12.4 5.584 12.4 12.432v19.696h19.712c6.848 0 12.4 5.552 12.4 12.384v8.336c0 6.848-5.552 12.384-12.4 12.384z" />
<glyph unicode="&#xe689;" d="M181.392 35.328h-33.088l-22.928 78.944h78.944l-22.928-78.944z" />
<glyph unicode="&#xe68a;" d="M370.832 35.328h-33.056l-22.944 78.944h78.944l-22.944-78.944z" />
<glyph unicode="&#xe68b;" d="M75.376 569.456h357.84c23.264 0 42.112-18.832 42.112-42.096v-415.728c0-23.248-18.848-42.112-42.112-42.112h-357.84c-23.248 0-42.096 18.864-42.096 42.112v415.728c0.016 23.264 18.864 42.096 42.096 42.096z" />
<glyph unicode="&#xe68c;" d="M103.312 531.008h308.416c17.424 0 31.568-14.128 31.568-31.568v-359.872c0-17.456-14.144-31.568-31.568-31.568h-308.416c-17.44 0-31.584 14.112-31.584 31.568v359.872c-0.016 17.424 14.144 31.568 31.584 31.568z" />
<glyph unicode="&#xe68d;" d="M346.4 299.792c-6.848-33.648-34.224-60.304-69.2-67.664v0-21.12c0-10.896-8.832-19.68-19.696-19.68s-19.664 8.816-19.664 19.68v21.12c-34.992 7.376-62.368 34.032-69.216 67.664h-19.6c-10.88 0-19.68 8.848-19.68 19.696 0 10.88 8.816 19.664 19.68 19.664h21.136c8.784 30.656 34.896 54.512 67.68 61.44v27.392c0 10.864 8.832 19.664 19.664 19.664 10.88 0 19.696-8.832 19.696-19.664v-27.392c32.768-6.928 58.88-30.784 67.664-61.44h21.136c10.864 0 19.68-8.816 19.68-19.664 0-10.88-8.816-19.696-19.68-19.696h-19.6z" />
<glyph unicode="&#xe68e;" d="M195.648 253.36c-13.632 12.144-23.328 28.256-27.024 46.432h-19.6c-10.88 0-19.68 8.848-19.68 19.696 0 10.88 8.816 19.664 19.68 19.664h21.136c8.784 30.656 34.896 54.512 67.68 61.44v27.392c0 10.864 8.832 19.664 19.664 19.664 10.88 0 19.696-8.832 19.696-19.664v-27.392c16.64-3.52 31.584-11.392 43.392-22.32l-124.944-124.912z" />
<glyph unicode="&#xe68f;" d="M320.288 319.488c0-33.040-28.109-59.824-62.784-59.824s-62.784 26.784-62.784 59.824c0 33.040 28.109 59.824 62.784 59.824s62.784-26.784 62.784-59.824z" />
<glyph unicode="&#xe690;" d="M293.392 319.488c0-18.875-16.068-34.176-35.888-34.176s-35.888 15.301-35.888 34.176c0 18.875 16.068 34.176 35.888 34.176s35.888-15.301 35.888-34.176z" />
<glyph unicode="&#xe691;" d="M423.632 447.664h0.912c17.456 0 31.584-7.168 31.584-16.032v0c0-8.848-14.128-16.032-31.584-16.032h-0.912c-17.44 0-31.584 7.184-31.584 16.032v0c-0.016 8.88 14.144 16.032 31.584 16.032z" />
<glyph unicode="&#xe692;" d="M423.632 223.36h0.912c17.456 0 31.584-7.184 31.584-16.032v0c0-8.848-14.128-16.016-31.584-16.016h-0.912c-17.44 0-31.584 7.168-31.584 16.016v0c-0.016 8.848 14.144 16.032 31.584 16.032z" />
<glyph unicode="&#xe693;" d="M570.352 93.52c-16.336 0-29.6 8.624-29.6 19.248v819.312c0 10.64 13.264 19.248 29.6 19.248 16.368 0 29.632-8.608 29.632-19.248v-819.312c0-10.624-13.248-19.248-29.632-19.248z" />
<glyph unicode="&#xe694;" d="M368.176 127.568c-1.008-18.512 1.344-40.080 10.144-61.568 16.512-40.288 51.44-66.272 104.432-68.672 56.4-2.544 92.976 25.2 108.8 70.048 7.376 20.864 9.296 41.84 8.384 59.872-0.080 1.44 0 31.136 0 31.136l-57.808-5.808c0 0-0.032-27.632 0-28.272 0.544-11.12-0.72-25.056-5.152-37.584-7.696-21.872-22.048-32.752-51.616-31.424-29.888 1.36-45.344 12.864-53.504 32.752-2.768 6.8-4.544 14.352-5.376 22.16-0.608 5.504-0.688 10.384-0.496 14.176 0.032 0.464 0.048 0.672 0.048 0.592l2.896 28.912-57.6 5.808-2.896-28.896c-0.096-0.736-0.176-1.856-0.256-3.232z" />
<glyph unicode="&#xe695;" d="M738.24 543.92c0-13.392-0.352-26.592-1.008-39.584h228.128c0 219.792-177.84 398-397.248 398 93.984-0.016 170.128-160.48 170.128-358.416z" />
<glyph unicode="&#xe696;" d="M568.096 902.32c-219.408 0-397.28-178.192-397.28-398h228.144c-0.688 12.992-1.024 26.192-1.024 39.584 0 197.952 76.192 358.416 170.16 358.416z" />
<glyph unicode="&#xe697;" d="M738.24 543.92c0 197.936-76.144 358.4-170.144 358.4-93.968 0-170.16-160.464-170.16-358.4 0-13.392 0.336-26.592 1.024-39.584h338.256c0.656 12.992 1.024 26.176 1.024 39.584z" />
<glyph unicode="&#xe698;" d="M106.176 561.696h808.64v-510.432h-808.64v510.432z" />
<glyph unicode="&#xe699;" d="M807.424 403.648c5.6 0 10.144-5.184 10.144-11.584v-210.592c0-6.4-4.576-11.616-10.144-11.616h-301.152c-5.6 0-10.112 5.216-10.112 11.616v210.592c0 6.4 4.544 11.584 10.112 11.584h301.152z" />
<glyph unicode="&#xe69a;" d="M402.24 392.384c0 6.368-4.544 11.552-10.112 11.552h-179.328c-5.6 0-10.144-5.184-10.144-11.552v-341.12h199.424v9.632l0.16 2.048v329.44z" />
<glyph unicode="&#xe69b;" d="M841.216 844.736l161.12-283.072v-53.44c0 0-13.952-55.68-93.536-55.68-79.52 0-98.432 50.016-98.432 59.136 0-18.208 0 52.256 0 52.256l-89.536 280.8h120.384z" />
<glyph unicode="&#xe69c;" d="M182.752 844.736l-161.152-283.072v-53.44c0 0 13.92-55.68 93.472-55.68 79.584 0 98.464 50.016 98.464 59.136 0-18.208 0 52.256 0 52.256l89.504 280.8h-120.288z" />
<glyph unicode="&#xe69d;" d="M303.104 844.736h130.336l-21.888-281.184v-53.792c0 0-21.216-57.632-104.128-57.632-82.848 0-93.824 50.784-93.824 59.52v52.256l89.504 280.832z" />
<glyph unicode="&#xe69e;" d="M720.832 844.736h-130.272l21.856-281.184v-53.792c0 0 21.248-56.48 104.128-56.48s93.856 49.632 93.856 58.368v52.256l-89.568 280.832z" />
<glyph unicode="&#xe69f;" d="M433.408 844.736l-21.888-281.184v-53.792c0 0 30.144-57.984 96.8-57.984 66.624 0 104.064 44.32 104.064 57.984v53.792l-21.856 281.184h-157.12z" />
<glyph unicode="&#xe6a0;" d="M1002.336 560.544h-191.968v-48.832c0-9.12 18.912-59.136 98.432-59.136 79.584 0 93.536 55.68 93.536 55.68v52.288z" />
<glyph unicode="&#xe6a1;" d="M810.368 560.544h-197.984v-50.752c0 0 21.248-56.48 104.128-56.48s93.856 49.632 93.856 58.368v48.864z" />
<glyph unicode="&#xe6a2;" d="M213.568 560.544h-191.968v-52.288c0 0 13.92-55.68 93.472-55.68 79.584 0 98.464 50.016 98.464 59.136v48.832z" />
<glyph unicode="&#xe6a3;" d="M411.52 560.544h-197.952v-48.832c0-8.736 10.976-59.52 93.824-59.52 82.912 0 104.128 57.632 104.128 57.632v50.72z" />
<glyph unicode="&#xe6a4;" d="M612.416 560.544h-200.864v-50.752c0 0 30.144-57.984 96.8-57.984 66.624 0 104.064 44.32 104.064 57.984v50.752z" />
<glyph unicode="&#xe6a5;" d="M97.36 609.36h777.184v-490.576h-777.184v490.576z" />
<glyph unicode="&#xe6a6;" d="M771.36 457.488c5.376 0 9.744-4.976 9.744-11.12v-202.432c0-6.16-4.368-11.136-9.744-11.136h-289.456c-5.376 0-9.728 4.992-9.728 11.136v202.432c0 6.144 4.352 11.12 9.728 11.12h289.456z" />
<glyph unicode="&#xe6a7;" d="M381.904 446.64c0 6.16-4.352 11.136-9.744 11.136h-172.336c-5.376 0-9.76-4.992-9.76-11.136v-327.84h191.68v9.264l0.144 1.952v316.624z" />
<glyph unicode="&#xe6a8;" d="M803.808 881.424l154.848-272.048v-51.344c0 0-13.376-53.536-89.84-53.536-76.48 0-94.656 48.080-94.656 56.832 0-17.488 0 50.256 0 50.256l-86.016 269.872h115.664z" />
<glyph unicode="&#xe6a9;" d="M170.976 881.424l-154.864-272.048v-51.344c0 0 13.376-53.536 89.856-53.536s94.64 48.080 94.64 56.832c0-17.488 0 50.256 0 50.256l86.032 269.872h-115.664z" />
<glyph unicode="&#xe6aa;" d="M286.624 881.424h125.248l-21.024-270.224v-51.728c0 0-20.4-55.36-100.064-55.36-79.648 0-90.192 48.8-90.192 57.2v50.256l86.032 269.856z" />
<glyph unicode="&#xe6ab;" d="M688.144 881.424h-125.232l21.024-270.224v-51.728c0 0 20.384-54.256 100.064-54.256 79.648 0 90.16 47.696 90.16 56.080v50.256l-86.016 269.872z" />
<glyph unicode="&#xe6ac;" d="M411.872 881.424l-21.024-270.224v-51.728c0 0 28.976-55.712 93.040-55.712 64.032 0 100.048 42.608 100.048 55.712v51.728l-21.024 270.224h-151.040z" />
<glyph unicode="&#xe6ad;" d="M958.656 608.272h-184.496v-46.976c0-8.752 18.176-56.832 94.656-56.832 76.464 0 89.84 53.536 89.84 53.536v50.272z" />
<glyph unicode="&#xe6ae;" d="M774.16 608.272h-190.224v-48.8c0 0 20.384-54.256 100.064-54.256 79.648 0 90.16 47.696 90.16 56.080v46.976z" />
<glyph unicode="&#xe6af;" d="M200.592 608.272h-184.48v-50.256c0 0 13.376-53.536 89.856-53.536s94.64 48.080 94.64 56.832v46.96z" />
<glyph unicode="&#xe6b0;" d="M390.848 608.272h-190.256v-46.976c0-8.384 10.544-57.2 90.192-57.2 79.664 0 100.064 55.36 100.064 55.36v48.816z" />
<glyph unicode="&#xe6b1;" d="M583.936 608.272h-193.088v-48.8c0 0 28.976-55.712 93.040-55.712 64.032 0 100.048 42.608 100.048 55.712v48.8z" />
<glyph unicode="&#xe6b2;" d="M979.28 203.568c0-104.377-84.615-188.992-188.992-188.992s-188.992 84.615-188.992 188.992c0 104.377 84.615 188.992 188.992 188.992s188.992-84.615 188.992-188.992z" />
<glyph unicode="&#xe6b3;" d="M677.584 160.24c75.136 0 150.304 0 225.44 0 51.6 0 51.6 80 0 80-75.136 0-150.304 0-225.44 0-51.6 0-51.6-80 0-80v0z" />
<glyph unicode="&#xe6b4;" glyph-name="tel-white" d="M610.816 339.68c-10.080-22.176 0.288-50.688-39.008-50.048-17.376 0.256-64.576 48.32-96.8 83.488-28.192 33.696-87.872 107.232-85.184 128 5.152 38.944 31.936 24.544 55.232 31.168 8.576 2.528 27.072 144.64-107.232 287.68-4.48 4.672-21.376 6.528-34.464-3.36-39.456-29.664-85.536-63.392-104.384-135.456-14.112-54.624-33.696-140.672 113.728-340.256 11.936-19.552 30.88-43.552 58.624-72.864 5.28-5.76 10.304-11.008 15.232-15.744 186.464-190.944 278.016-184 335.648-177.696 74.016 8.128 114.112 48.8 149.184 83.616 11.584 11.552 12.224 28.384 8.352 33.504-122.112 153.664-265.312 155.968-268.928 147.968v0z" />
<glyph unicode="&#xe6b5;" d="M903.824 726.096h-783.664c-56.208 0-102.208-46.784-102.208-103.92l494.048-408.816 494.032 408.832c0 57.136-45.968 103.904-102.208 103.904z" />
<glyph unicode="&#xe6b6;" d="M873.696 121.952c0-71.056-57.216-129.264-127.184-129.264h-469.040c-69.936 0-127.152 58.208-127.152 129.264v660.672c0 71.104 57.216 129.248 127.152 129.248h469.040c69.968 0 127.184-58.144 127.184-129.248v-660.672z" />
<glyph unicode="&#xe6b7;" d="M269.872 746.064h484.288v-34.272h-484.288v34.272z" />
<glyph unicode="&#xe6b8;" d="M269.872 747.040h484.288v-17.152h-484.288v17.152z" />
<glyph unicode="&#xe6b9;" d="M269.872 649.568h484.288v-34.304h-484.288v34.304z" />
<glyph unicode="&#xe6ba;" d="M269.872 650.512h484.288v-17.12h-484.288v17.12z" />
<glyph unicode="&#xe6bb;" d="M269.872 553.040h484.288v-34.288h-484.288v34.288z" />
<glyph unicode="&#xe6bc;" d="M269.872 554h484.288v-17.136h-484.288v17.136z" />
<glyph unicode="&#xe6bd;" d="M269.872 456.544h484.288v-34.272h-484.288v34.272z" />
<glyph unicode="&#xe6be;" d="M269.872 457.504h484.288v-17.136h-484.288v17.136z" />
<glyph unicode="&#xe6bf;" d="M269.872 360.016h484.288v-34.304h-484.288v34.304z" />
<glyph unicode="&#xe6c0;" d="M269.872 360.96h484.288v-17.104h-484.288v17.104z" />
<glyph unicode="&#xe6c1;" d="M269.872 263.488h484.288v-34.272h-484.288v34.272z" />
<glyph unicode="&#xe6c2;" d="M269.872 264.448h484.288v-17.12h-484.288v17.12z" />
<glyph unicode="&#xe6c3;" d="M683.632 355.344l322.4-264.624v531.472l-322.4-266.848z" />
<glyph unicode="&#xe6c4;" d="M17.968 622.192v-531.472l321.12 265.728-321.12 265.744z" />
<glyph unicode="&#xe6c5;" d="M683.632 355.344l-171.632-141.984-172.912 143.088-321.12-265.728c0-57.168 46-103.904 102.208-103.904h783.664c56.24 0 102.208 46.736 102.208 103.904l-322.416 264.624z" />
<glyph unicode="&#xe6c6;" d="M683.632 389.12l-171.632-124.016-494.032 357.072 494.032-408.816 494.032 408.832-322.4-233.072z" />
<glyph unicode="&#xe6c7;" d="M396.059 915.379l277.85-0.543c53.8-0.101 97.819-44.256 97.778-98.132l-0.328-738.37c-0.028-53.833-44.076-97.849-97.891-97.719l-277.842 0.529c-53.808 0.115-97.833 44.248-97.792 98.125l0.336 738.356c0.027 53.869 44.090 97.856 97.89 97.755z" />
<glyph unicode="&#xe6c8;" d="M463.198 892.152l143.551-0.291c3.888-0.019 7.089-3.197 7.077-7.099l-0.014-0.008c0.010-3.909-3.169-7.073-7.056-7.090l-143.565 0.283c-3.888 0.019-7.060 3.212-7.077 7.099l-0.008 0.014c0.004 3.916 3.183 7.081 7.092 7.091z" />
<glyph unicode="&#xe6c9;" d="M534.596 49.242c13.196-0.027 23.912-10.776 23.9-24 0.003-13.216-10.726-23.903-23.936-23.884-13.218 0.033-23.918 10.755-23.899 23.964 0.003 13.274 10.71 23.967 23.935 23.919z" />
<glyph unicode="&#xe6ca;" d="M335.856 780.672h390.96v-659.616h-390.96v659.616z" />
<glyph unicode="&#xe6cb;" d="M651.047 539.775c-8.56 53.648-53.856 96.608-120.528 96.608s-111.968-42.96-120.528-96.608c-11.44-71.68 27.312-139.904 31.408-195.728 4.176-56.768-0.096-84.080-2.592-93.088h189.696c-2.496 9.008-9.36 40.064-5.168 96.832 4.096 55.84 39.152 120.304 27.712 191.984z" />
<glyph unicode="&#xe6cc;" d="M490.199 406.095h85.024v-82.736h-85.024v82.736z" />
<glyph unicode="&#xe6cd;" d="M490.967 402.975c-42.592-56.528-51.616-127.664-53.056-152.016h195.44c-2.32 24.064-12.944 92.352-61.072 155.136-5.264-23.008-17.824-47.68-40.416-71.296-15.856 15.648-27.312 35.024-36.544 57.824l-4.352 10.352z" />
<glyph unicode="&#xe6ce;" d="M464.535 250.959c1.136 22.992 3.792 62.624 9.792 103.776 0 0-14.352-54.336-18.864-103.776h9.072z" />
<glyph unicode="&#xe6cf;" d="M588.743 358.719c6.976-28.096 14.048-82.448 17.152-107.76h8.224c-7.488 57.536-25.376 107.76-25.376 107.76z" />
<glyph unicode="&#xe6d0;" d="M568.087 342.463c3.392 5.84-5.152 15.136-5.152 15.136s14.144-2.544 18.192 6.752c4.064 9.296-11.936 30.672-11.936 30.672v0c-6.432-19.744-18.336-40.368-37.344-60.24 0 0.016 32.848 1.808 36.24 7.68z" />
<glyph unicode="&#xe6d1;" d="M495.319 392.591v0.032c0 0-16.816-18.976-12.768-28.272 4.064-9.296 18.208-6.752 18.208-6.752s-8.56-9.296-5.152-15.136c3.392-5.872 36.256-7.664 36.256-7.664-15.712 15.472-27.36 35.296-36.544 57.792z" />
<glyph unicode="&#xe6d2;" d="M440.711 481.167c0 0-12.512 9.136-22.688 0-9.776-8.784-3.248-54.384 37.264-49.488l-14.576 49.488z" />
<glyph unicode="&#xe6d3;" d="M620.343 481.167c0 0 12.496 9.136 22.672 0 9.776-8.784 3.248-54.384-37.264-49.488l14.592 49.488z" />
<glyph unicode="&#xe6d4;" d="M629.255 488.719c0-55.008-44.208-99.584-98.736-99.584s-98.736 44.576-98.736 99.584c0 55.008 44.208 99.584 98.736 99.584s98.736-44.576 98.736-99.584z" />
<glyph unicode="&#xe6d5;" d="M425.559 488.783c0 0 110.064 13.264 146.912 68.624 0 0 27.84-64 61.616-68.688v74.928l-103.568 49.664-104.96-59.28v-65.248z" />
<glyph unicode="&#xe6d6;" d="M514.055 429.023c0 0 4.272 6.48 9.216 6.176s7.632-5.088 7.632-5.088 4.416 4.992 9.632 4.88c5.184-0.096 7.456-6.48 7.456-6.48s-5.152-12.16-17.472-12.16c-12.32 0.016-16.464 12.672-16.464 12.672z" />
<glyph unicode="&#xe6d7;" d="M694.48 508.464c0-88.224-71.136-159.712-158.896-159.712-87.776 0-158.912 71.504-158.912 159.712s71.136 159.728 158.912 159.728c87.76 0.016 158.896-71.504 158.896-159.728z" />
<glyph unicode="&#xe6d8;" d="M743.664-2l-427.888 4.464 30.064 487.312h367.76l25.616-487.312z" />
<glyph unicode="&#xe6d9;" d="M345.824 489.776l-6.592-95.088h380.944l-6.592 95.088h-367.76z" />
<glyph unicode="&#xe6da;" d="M244.352 533.408h570.704v-45.904h-570.704v45.904z" />
<glyph unicode="&#xe6db;" d="M374.432 812.32c57.504-77.6 80.656-209.456 80.656-209.456s-119.072 60.032-176.576 137.632c-57.504 77.6-54.064 118.016-27.568 137.856 26.496 19.808 66 11.568 123.488-66.032z" />
<glyph unicode="&#xe6dc;" d="M540.832 842.336c13.872-95.744-28.176-222.816-28.176-222.816s-76.32 109.76-90.176 205.504c-13.856 95.728 8.288 129.648 40.976 134.432s63.52-21.376 77.376-117.12z" />
<glyph unicode="&#xe6dd;" d="M525.456 570.704c0-7.232-5.84-13.088-13.024-13.088-7.2 0-13.024 5.856-13.024 13.088s5.84 13.088 13.024 13.088c7.2 0.016 13.024-5.856 13.024-13.088z" />
<glyph unicode="&#xe6de;" d="M662.592 570.704c0-7.232-5.808-13.088-13.008-13.088-7.184 0-13.008 5.856-13.008 13.088s5.824 13.088 13.008 13.088c7.2 0.016 13.008-5.856 13.008-13.088z" />
</font>
</defs>
</svg>
